<svg
   version="1.1"
   width="1365.3333"
   height="1365.3333"
   viewBox="0 0 1365.3333 1365.3333"
  <g
     inkscape:groupmode="layer"
     inkscape:label="Image"
     id="g1">
    <path
       style="fill:#000000;stroke-width:1.23186"
       d="m 460.71809,1313.0691 c -44.96155,-10.8177 -72.87102,-48.69 -102.08416,-82.1868 -40.1063,-46.2702 -66.78202,-76.8805 -79.19702,-90.8781 -51.09453,-57.6078 -75.41469,-86.8569 -73.67044,-88.6012 0.65335,-0.6533 0.35163,-0.9415 -0.67049,-0.6404 -1.94104,0.5719 -11.83118,-10.2942 -48.08801,-52.83319 -31.66428,-37.1507 -37.11324,-58.81464 -26.74958,-106.35081 1.34926,-6.18881 1.18686,-6.98056 -1.43187,-6.98056 -4.00513,0 -0.72623,15.85734 -38.717128,-187.24314 C 84.160505,665.55197 60.846133,535.53316 59.184522,524.89411 58.690705,521.73233 52.393016,486.99379 45.189649,447.69737 17.007866,293.95787 16.917176,290.95195 39.768922,268.02434 c 13.192574,-13.23636 9.560624,-12.15539 177.040338,-52.69189 32.52118,-7.87137 96.45486,-23.42789 142.07485,-34.57006 45.61998,-11.14215 103.27116,-25.1076 128.11372,-31.03434 24.84257,-5.92675 63.27669,-15.19329 85.40916,-20.59232 143.21377,-34.935777 169.91236,-41.21112 171.97169,-40.42088 1.2662,0.485896 1.92908,0.279719 1.47304,-0.458155 -0.45603,-0.737886 4.86419,-2.663004 11.82271,-4.27805 6.95851,-1.615046 39.62964,-9.661722 72.6025,-17.881487 92.27599,-23.003389 112.60046,-20.038159 131.24937,19.148495 4.17454,8.771873 20.49573,135.331227 23.01859,178.493547 0.0788,1.35505 1.56853,14.28961 3.30977,28.74346 1.74111,14.45385 8.38294,73.21371 14.75964,130.57746 12.6032,113.37512 19.0554,169.87658 21.5303,188.5421 0.8734,6.5863 1.5879,14.3861 1.5879,17.33289 0,4.97756 2.5935,7.51469 36.5453,35.75041 20.0999,16.71594 67.4548,56.21967 105.2332,87.78607 37.7784,31.5664 72.7113,60.58963 77.6288,64.49606 4.9996,3.97164 8.4576,7.88472 7.8444,8.87682 -0.6425,1.03957 -0.3308,1.30098 0.7526,0.63134 2.3626,-1.46016 58.0656,44.84657 56.6677,47.1086 -0.6139,0.99316 -0.2044,1.15609 1.0137,0.40332 9.5284,-5.88897 29.3354,30.44662 31.5848,57.94225 4.5322,55.39649 -5.0855,72.15132 -51.6843,90.03872 -36.6422,14.0655 -79.0693,28.593 -81.1607,27.7904 -1.2543,-0.4813 -1.8866,-0.2379 -1.4053,0.5408 0.4813,0.7788 -5.5781,3.8007 -13.4653,6.7154 -7.8871,2.9147 -20.2532,7.4915 -27.48,10.1707 -7.227,2.6792 -26.444,9.6769 -42.7046,15.5507 -29.2082,10.5507 -49.8647,18.1953 -149.466,55.3139 -28.0044,10.4365 -56.46043,20.9439 -63.23568,23.3497 -11.16218,3.9638 -106.24894,39.3496 -155.21472,57.762 -10.84039,4.0762 -25.25317,9.4891 -32.02842,12.0287 -6.77525,2.5396 -27.10098,10.2914 -45.16831,17.2262 -62.81558,24.1102 -67.01851,25.6098 -69.31203,24.7297 -1.26865,-0.4868 -1.92305,-0.2645 -1.45424,0.494 0.79002,1.2783 -53.52518,22.1751 -86.44728,33.2591 -21.82086,7.3463 -42.35392,9.3876 -62.05803,6.1691 z m 32.84968,-80.3937 c 8.07392,-1.8474 5.96896,-1.0831 123.18628,-44.7313 178.92589,-66.6266 257.91642,-95.0836 260.8296,-93.9661 1.17612,0.4511 1.76981,0.2238 1.3193,-0.505 -0.4505,-0.7291 1.91325,-2.2882 5.25278,-3.465 3.33952,-1.1768 31.51047,-11.3207 62.60211,-22.5419 31.09163,-11.2213 57.55356,-20.0098 58.80406,-19.5299 1.2506,0.4799 1.8788,0.2332 1.3957,-0.5482 -0.4828,-0.7814 4.8373,-3.4264 11.8227,-5.8777 24.7976,-8.7019 77.2671,-27.553 112.8924,-40.5597 19.8741,-7.2559 49.4388,-17.87653 65.6994,-23.60135 80.302,-28.27181 102.5941,-37.61009 105.6164,-44.24348 5.8328,-12.80158 0.9991,-22.76094 -18.6294,-38.3835 -13.1412,-10.45922 -63.6979,-52.0644 -67.121,-55.23655 -5.1456,-4.76845 -26.8236,-23.11908 -59.2856,-50.18599 -19.8741,-16.57102 -61.4984,-51.61363 -92.4985,-77.87245 -62.2103,-52.69558 -63.2809,-53.41045 -79.9623,-53.39562 -12.85622,0.0111 -4.50837,-2.23495 -138.78993,37.34776 -49.23345,14.51274 -103.55859,30.45429 -120.72256,35.42567 -50.87647,14.73589 -98.31976,28.52392 -128.60415,37.3751 -15.62696,4.56728 -29.5238,7.87775 -30.88188,7.3566 -1.39875,-0.53675 -2.03419,-0.24363 -1.46574,0.67614 0.55192,0.89302 0.60306,1.62367 0.1137,1.62367 -0.48942,0 -36.19547,10.41868 -79.34678,23.15262 -43.15132,12.73394 -93.60885,27.54895 -112.12785,32.92224 -18.519,5.37328 -41.80121,12.28427 -51.73824,15.35774 -49.83496,15.41369 -152.03169,43.85728 -158.58119,44.13663 -9.593,0.40916 -2.42203,11.15726 37.0374,55.51296 51.92026,58.36271 93.59059,106.65101 94.15263,109.10571 0.29207,1.2756 1.16076,2.3193 1.9304,2.3193 0.76965,0 8.25155,7.9456 16.62644,17.6566 8.37491,9.7113 15.67294,18.0263 16.21788,18.4779 0.54493,0.4518 14.97692,17.0819 32.07107,36.9559 17.09416,19.8742 33.02889,38.3521 35.41053,41.0622 14.95137,20.7059 24.14698,30.7867 39.52128,44.2453 9.37518,8.4292 19.18651,12.3496 35.07958,14.0171 6.32356,0.6636 12.2365,1.2968 13.13987,1.4072 0.90337,0.1109 4.96852,-0.5604 9.03366,-1.4906 z M 421.89746,1121.035 c -16.59607,-3.448 -39.78704,-33.0006 -32.0042,-40.7834 4.20607,-4.2061 40.2285,-15.635 44.9706,-14.2679 4.57996,1.3203 32.42418,34.695 32.42418,38.8643 0,7.7058 -31.73706,19.0236 -45.39058,16.187 z m 70.73194,-24.8248 c -4.49563,-1.1729 -14.27901,-10.715 -31.32496,-30.5526 -5.30973,-6.1793 -1.90133,-11.6329 9.26856,-14.8302 3.16178,-0.905 15.66647,-4.7263 27.78821,-8.4918 27.01112,-8.3907 26.0453,-8.6313 43.4727,10.8309 20.89297,23.3324 20.72648,25.9619 -2.07659,32.7974 -7.78861,2.3347 -17.48714,5.3415 -21.55229,6.6817 -11.54662,3.8067 -20.0854,4.9968 -25.57563,3.5646 z m 288.37303,-8.1284 c -5.49339,-2.1652 -23.10321,-19.6638 -21.84215,-21.7043 0.54857,-0.8875 0.20356,-1.1232 -0.7667,-0.5235 -2.11696,1.3083 -11.88331,-10.068 -11.88331,-13.8423 0,-4.8527 5.52177,-7.6686 32.02843,-16.3335 14.45385,-4.7249 30.34488,-10.0714 35.31339,-11.881 14.23332,-5.1841 84.43883,-28.83568 103.47648,-34.86021 9.48535,-3.00168 22.99348,-7.74973 30.01809,-10.55122 19.55758,-7.79979 20.61292,-7.54017 37.71056,9.27812 25.05408,24.64471 24.41908,26.41251 -14.34788,39.94581 -7.22697,2.5228 -23.48757,8.3784 -36.13469,13.0123 -41.53129,15.2171 -70.50599,24.732 -72.72329,23.8811 -1.19918,-0.4602 -1.78674,-0.1999 -1.30568,0.5785 0.48106,0.7784 -3.36091,2.9294 -8.53773,4.78 -60.31995,21.5636 -61.65418,21.906 -71.00552,18.2202 z m -199.60989,-22.5721 c -5.85974,-3.5734 -28.27794,-27.3605 -30.75122,-32.6289 -3.21145,-6.8408 -1.57809,-7.7325 36.75613,-20.0663 30.05265,-9.6692 27.11759,-10.7209 53.58788,19.2018 14.41354,16.2935 15.90397,14.6739 -25.99742,28.2508 -29.42423,9.534 -27.14221,9.1779 -33.59537,5.2426 z m -220.04471,-3.8776 c -6.75232,-3.8988 -20.79712,-20.8216 -19.36738,-23.336 0.55302,-0.9726 0.46626,-1.286 -0.19279,-0.6965 -0.65905,0.5895 -4.28836,-2.367 -8.06513,-6.5699 -3.77677,-4.203 -7.2829,-8.0113 -7.7914,-8.463 -0.50848,-0.4517 -6.76178,-7.8429 -13.8962,-16.4249 -7.13443,-8.58194 -16.14213,-19.19431 -20.01713,-23.58299 -12.17898,-13.79349 -8.88683,-19.02771 17.16654,-27.29317 19.27177,-6.11399 22.44864,-6.16551 27.83331,-0.45141 21.7711,23.10298 77.7109,89.14657 77.7109,91.74687 0,5.0882 -26.06707,17.1188 -32.08679,14.8088 -1.32295,-0.5076 -2.40537,-0.2071 -2.40537,0.6679 0,2.2204 -14.89444,1.9005 -18.88856,-0.4057 z m 70.95985,-28.1302 c -19.28874,-19.9289 -26.38378,-29.4765 -25.04326,-33.7002 2.45541,-7.73625 61.82598,-24.68254 68.23603,-19.47674 7.7006,6.25389 29.66983,32.53034 28.61924,34.23034 -0.75795,1.2264 -0.5015,1.5145 0.69169,0.777 1.19193,-0.7366 1.89626,0.048 1.89626,2.113 0,4.4225 0.25954,4.305 -31.70467,14.3584 -34.08368,10.7201 -33.96765,10.7155 -42.69529,1.6982 z m 230.25558,-5.4923 c -5.72527,-5.4609 -9.4339,-10.2709 -8.93055,-11.5827 0.47347,-1.2338 0.21066,-1.8414 -0.58399,-1.3503 -1.83015,1.1311 -13.29989,-11.4331 -13.29989,-14.569 0,-4.23941 7.77946,-8.57296 24.9509,-13.89887 14.45453,-4.48323 85.90124,-27.53464 145.8674,-47.06232 9.48534,-3.08886 25.74593,-8.15514 36.13464,-11.2584 10.38871,-3.10328 26.51053,-7.96679 35.82626,-10.80783 9.31573,-2.84102 17.80899,-4.87507 18.8739,-4.52011 1.06491,0.35498 2.78979,-0.20818 3.83306,-1.25146 2.1626,-2.1626 49.15624,-18.04492 58.49363,-19.76896 6.12951,-1.13174 42.29408,30.05405 42.29408,36.47144 0,2.29611 -7.9985,5.35527 -44.3471,16.96118 -26.45688,8.44757 -179.97323,59.03103 -199.56175,65.75533 -88.18505,30.2722 -85.9158,29.8874 -99.55059,16.882 z m -133.68209,-18.9168 c -3.72189,-2.1262 -8.38827,-8.0761 -7.78903,-9.9315 0.21881,-0.6776 -0.25704,-1.0471 -1.05747,-0.8213 -2.48565,0.7014 -21.53944,-22.04849 -21.53944,-25.71764 0,-4.90416 50.07257,-23.96745 62.9541,-23.96745 3.24918,0 35.59491,35.80399 35.59491,39.40053 0,4.95843 -39.11166,19.81656 -45.60493,17.32486 -1.20874,-0.4638 -1.81396,-0.2224 -1.34495,0.5365 2.17854,3.5249 -15.87176,6.2274 -21.21319,3.176 z M 384.89875,981.45446 c -5.15137,-3.00666 -29.29962,-32.65691 -29.29962,-35.97531 0,-4.92512 4.80272,-7.18242 33.03297,-15.5257 35.92959,-10.61878 31.97449,-11.528 52.2091,12.00216 19.19954,22.32654 19.97553,21.18504 -22.92439,33.7228 -27.26556,7.96852 -28.80136,8.23718 -33.01806,5.77605 z m 219.10764,-15.95997 c -21.80245,-22.95904 -21.77447,-25.25825 0.38758,-31.84958 6.34636,-1.8875 18.07277,-5.56492 26.05869,-8.17203 19.53258,-6.37667 21.64713,-6.21524 28.83037,2.20092 3.25836,3.81762 10.54377,11.6111 16.18981,17.31883 15.16529,15.33103 13.75995,18.73203 -10.26552,24.84324 -7.22692,1.83827 -18.4846,5.21576 -25.01703,7.50551 -18.63338,6.53141 -18.77571,6.48481 -36.1839,-11.84689 z M 478.14915,953.25893 c -1.49479,-0.83653 -2.29429,-2.20617 -1.77669,-3.04368 0.51759,-0.83749 -0.10976,-1.11947 -1.39416,-0.6266 -4.12907,1.58447 -31.14902,-29.84744 -29.0421,-33.78426 3.9179,-7.32066 62.43859,-24.6377 68.16579,-20.17115 8.40699,6.55649 30.78734,35.58876 29.2797,37.98224 -2.63659,4.18578 -27.62005,12.86856 -57.3962,19.94752 -2.8152,0.66928 -6.34156,0.53246 -7.83634,-0.30407 z m 232.074,-1.91909 c -9.08306,-4.73972 -36.0564,-33.96938 -34.32781,-37.1993 1.56558,-2.92529 54.81802,-21.33007 61.7165,-21.33007 2.93772,0 38.46313,34.66943 38.46313,37.53639 0,3.00036 -4.69902,5.06847 -31.93295,14.05418 -31.81727,10.49798 -28.42723,9.80447 -33.91887,6.9388 z m -447.5558,-4.20088 c -4.69341,-2.00108 -21.21084,-20.5159 -24.51561,-27.4802 -3.5358,-7.45113 2.58394,-10.57423 9.38588,-15.86024 6.80194,-5.28601 28.80751,-9.34557 31.91708,-9.34557 3.47771,0 33.43986,33.255 33.43986,37.1149 0,7.38242 -40.2018,19.84551 -50.22721,15.57111 z m 70.43031,-22.30367 c -6.55015,-4.5879 -28.34667,-31.93559 -27.40629,-34.38616 2.01762,-5.25783 48.76713,-20.90488 53.57703,-17.93221 0.97859,0.60481 1.29475,0.3292 0.70919,-0.61824 -1.11391,-1.80236 3.85355,-3.66529 9.87407,-3.70305 3.82807,-0.024 10.95066,7.58799 9.41903,10.06623 -0.50652,0.81957 -0.0504,1.28702 1.01371,1.0388 4.72499,-1.10224 23.45353,25.23329 20.21648,28.42785 -7.26352,7.16819 -61.82307,21.01527 -67.40322,17.10678 z m 235.10164,0.88803 c -8.97889,-3.63533 -37.88002,-39.8932 -30.48978,-38.25093 1.01629,0.22585 1.66302,-0.44621 1.43717,-1.49344 -0.52163,-2.41889 55.75772,-19.77489 60.5296,-18.66673 3.70429,0.86023 35.14508,34.72023 35.14508,37.84931 0,2.79166 -56.48505,22.74817 -62.3736,22.03698 -0.47412,-0.0573 -2.38592,-0.7211 -4.24847,-1.47519 z m 226.76423,-4.84769 c -6.15585,-3.90997 -32.02843,-30.40084 -32.02843,-32.79382 0,-3.08581 6.83753,-6.13616 27.92223,-12.45661 11.29207,-3.38496 21.81447,-6.81598 23.3831,-7.62448 9.01405,-4.64599 13.643,-2.29725 32.501,16.4911 9.91521,9.8786 18.02766,18.68862 18.02766,19.5778 0,2.197 -15.92853,7.35007 -19.03494,6.15802 -1.59984,-0.61391 -2.07266,-0.28275 -1.32458,0.92769 0.79132,1.28036 0.0299,1.58599 -2.38068,0.95559 -1.94924,-0.50973 -3.21792,-0.39906 -2.81929,0.24593 2.8397,4.59473 -38.0343,12.46428 -44.24607,8.51878 z m 226.64087,-5.69447 c -16.1787,-10.96593 -31.62318,-28.8763 -27.66471,-32.08167 6.87181,-5.56449 57.61731,-19.00997 62.29621,-16.50592 4.2206,2.25877 35.5491,30.66324 36.5831,33.16867 1.6809,4.07233 -22.8115,14.34237 -28.7603,12.05963 -1.2991,-0.49855 -1.965,-0.26386 -1.4796,0.52156 0.8639,1.3978 -23.9946,8.38925 -29.8286,8.38925 -1.6256,0 -6.6413,-2.49819 -11.1461,-5.55152 z M 422.19394,894.51192 c -8.59255,-6.8285 -19.08436,-19.07508 -17.67699,-20.63352 0.64786,-0.71743 0.31057,-0.80766 -0.74956,-0.20053 -2.51754,1.4418 -9.0553,-7.7218 -7.81505,-10.95387 1.1461,-2.98667 3.05465,-3.71939 34.96933,-13.42506 14.60924,-4.44285 26.78321,-7.28115 28.92478,-6.74365 3.42878,0.86057 32.07883,32.48121 32.07883,35.40493 0,3.40424 -17.36255,10.12632 -44.594,17.26499 -19.45517,5.10014 -17.76163,5.14819 -25.13734,-0.71329 z m 227.2938,-3.80358 c -19.18198,-15.62553 -30.91627,-32.02819 -22.42291,-31.34362 1.53655,0.12384 2.41163,-0.39308 1.9446,-1.14874 -0.46701,-0.75565 4.16042,-2.86802 10.28321,-4.69414 6.12278,-1.82611 18.5235,-5.55069 27.55717,-8.27681 9.03366,-2.72613 17.5739,-4.96501 18.97831,-4.97533 2.63948,-0.0193 37.68737,33.41511 37.68737,35.95244 0,3.21604 -29.01357,14.94583 -36.96842,14.94583 -1.07057,0 -4.22664,1.13749 -7.01348,2.52776 -11.93117,5.95204 -20.0645,5.14337 -30.04585,-2.98739 z m 231.7361,1.30296 c -17.81197,-13.14127 -35.48939,-36.97797 -27.42302,-36.97797 0.22743,0 12.92362,-3.6955 28.21373,-8.21223 31.26726,-9.23641 31.41065,-9.23128 41.87103,1.49843 4.07226,4.17712 12.02359,11.88359 17.66962,17.12549 13.23158,12.28454 13.79146,11.35081 -11.49738,19.17584 -11.96961,3.70369 -25.03583,7.80063 -29.03605,9.10429 -10.07678,3.28397 -13.4155,2.99494 -19.79793,-1.71385 z m 229.87266,-1.99068 c -7.9916,-5.49001 -31.3234,-25.65005 -32.7323,-28.2825 -3.3872,-6.32889 3.3069,-9.65026 41.1318,-20.40824 17.1764,-4.88528 20.185,-4.40885 30.4191,4.81728 4.4205,3.98518 12.2914,10.37168 17.4908,14.19221 17.0884,12.55672 16.0061,14.0961 -17.4983,24.88678 -25.5197,8.21901 -32.5601,9.08874 -38.8111,4.79447 z M 515.58325,869.85794 c -4.95295,-2.00249 -27.32188,-24.38003 -26.19434,-26.20444 0.52112,-0.84318 0.082,-2.06788 -0.97557,-2.72156 -1.20103,-0.74228 -1.48304,-0.47654 -0.7511,0.70774 0.64457,1.04295 0.78478,1.89627 0.31156,1.89627 -0.47321,0 -1.62286,-1.4247 -2.55477,-3.16598 -3.58954,-6.70713 0.81914,-9.83567 18.82488,-13.35869 5.4202,-1.06053 16.13165,-4.05882 23.80324,-6.66289 20.96155,-7.11525 20.32401,-7.31584 38.46232,12.1008 8.64989,9.25949 15.73277,17.63446 15.73974,18.61101 0.0251,3.52546 -17.27223,10.103 -42.69189,16.23406 -18.90617,4.56006 -19.009,4.57106 -23.97407,2.56368 z M 730.34023,857.5869 c -25.36423,-24.48225 -25.60796,-23.56147 9.16946,-34.64011 38.70905,-12.33109 30.74598,-15.03061 66.57855,22.57042 6.30179,6.6128 6.13148,6.72493 -25.57964,16.8415 -35.27829,11.25457 -33.37732,11.43538 -50.16837,-4.77181 z m 232.77665,3.96622 c -33.53779,-26.45458 -33.32843,-29.35892 2.90067,-40.24063 30.05045,-9.02591 29.78484,-9.02711 40.15555,0.18346 4.6597,4.1386 13.2229,11.25801 19.0291,15.82092 15.7873,12.40674 15.2276,13.20165 -16.7158,23.74514 -32.58291,10.75453 -32.36117,10.75213 -45.36952,0.49111 z M 599.94546,840.8429 c -9.92332,-7.06054 -26.6954,-28.51532 -24.74298,-31.65112 1.49505,-2.40123 9.00624,-5.28606 38.38239,-14.74162 19.6212,-6.31564 41.96712,5.08885 53.99044,27.55462 5.15377,9.62991 -56.45324,26.79039 -67.62985,18.83812 z m 224.81223,-3.67829 c -32.98727,-28.55028 -32.86518,-30.24877 2.90587,-40.42261 34.17488,-9.71986 31.51806,-10.07813 48.39827,6.52634 7.79117,7.66389 15.82878,15.09697 17.86135,16.51796 2.03257,1.421 3.69559,3.2219 3.69559,4.002 0,2.25888 -46.46956,16.42851 -50.97982,15.54491 -3.33331,-0.65303 -3.48195,-0.54622 -0.84638,0.60812 2.9894,1.30932 2.93607,1.47004 -0.82124,2.47501 -8.48342,2.26905 -12.82835,1.14018 -20.21364,-5.25173 z m 237.93071,3.78396 c -0.9034,-0.22564 -3.6858,-0.86122 -6.183,-1.41241 -2.4974,-0.55119 -8.4763,-4.49622 -13.2868,-8.76672 -4.8104,-4.2705 -12.2314,-10.60694 -16.4913,-14.08098 -11.4161,-9.31026 -10.444,-10.37111 17.8989,-19.53126 30.0976,-9.72727 38.05,-10.97916 42.9172,-6.75611 1.9264,1.67151 9.5748,8.21208 16.9964,14.5346 16.3459,13.92538 17.877,16.26222 12.7889,19.51931 -5.778,3.69875 -51.097,17.37859 -54.6403,16.49357 z M 688.02068,814.64314 c -32.76115,-21.82307 -34.66204,-33.67788 -6.38853,-39.84154 8.1303,-1.77242 18.8475,-4.77072 23.81602,-6.66289 13.61634,-5.18556 16.73193,-4.64186 26.43522,4.61311 5.46203,5.20967 7.99694,8.78051 7.17609,10.10868 -0.81591,1.32019 -0.59956,1.63974 0.6058,0.89477 2.65643,-1.64175 9.14806,4.78859 7.57757,7.50603 -0.69259,1.19839 -0.66985,1.64639 0.0505,0.99556 1.37668,-1.24377 10.71425,4.62794 10.71425,6.73742 0,2.94666 -49.73033,19.85466 -58.48959,19.88608 -2.80988,0.01 -7.9837,-1.89667 -11.49738,-4.23722 z m 227.35872,0.56167 c -6.97804,-3.24923 -32.54299,-27.57518 -32.54299,-30.96581 0,-4.17561 5.61793,-7.38546 16.92978,-9.67298 5.24622,-1.0609 15.96343,-4.10197 23.81601,-6.75791 17.54463,-5.93406 54.51832,13.66753 54.51832,28.90286 0,7.1641 -53.3008,22.88027 -62.72112,18.49384 z M 775.46611,789.48879 c -8.23274,-5.42763 -30.41216,-28.29351 -29.57081,-30.48603 1.15699,-3.01504 10.54684,-6.76598 28.9732,-11.57383 8.82178,-2.30181 17.92409,-4.90158 20.22735,-5.77728 8.97312,-3.41158 11.60098,-2.09197 30.23329,15.18185 22.45299,20.81595 23.55444,19.25652 -21.78484,30.84282 -22.80045,5.82657 -22.06184,5.77889 -28.07819,1.81247 z m 224.99519,0.62503 c -4.0858,-2.11976 -32.54459,-26.5725 -34.69333,-28.72441 -4.53449,-4.54141 1.95275,-5.89052 8.10369,-8.19006 1.20612,-0.4509 11.27549,-3.43498 22.69784,-8.02739 12.1052,-4.867 22.3134,-9.22434 28.9479,-7.28712 6.0291,3.65199 4.6022,3.09279 19.4639,16.46647 23.0191,20.71451 23.0476,22.46559 0.461,28.40195 -4.0652,1.06844 -11.1166,3.00622 -15.6698,4.3062 -14.6288,4.17658 -25.0541,5.26295 -29.3112,3.05436 z M 856.52799,762.05565 c -13.34206,-10.50495 -24.80419,-22.40227 -23.8866,-24.79349 0.48577,-1.26591 0.15258,-1.8494 -0.74079,-1.29726 -2.75806,1.70457 -1.78922,-1.81759 1.25068,-4.54679 2.50369,-2.24778 36.25447,-13.06655 48.17434,-15.44222 5.90574,-1.17705 39.41271,23.55632 43.17849,31.87243 1.66914,3.68604 -15.83687,9.58838 -56.47874,19.04239 -3.13172,0.7285 -5.92113,-0.44455 -11.49738,-4.83506 z m 89.54405,-18.97363 c -15.14597,-8.85862 -34.76734,-29.7981 -32.04696,-34.19975 1.40257,-2.26941 48.28924,-18.12689 53.33729,-18.03911 5.66004,0.0984 31.38143,20.09725 29.58553,23.00319 -0.3675,0.59443 1.1423,2.04964 3.355,3.23379 11.7619,6.29483 7.1437,10.89203 -19.67989,19.59021 -23.92906,7.75959 -30.24309,8.93129 -34.55097,6.41167 z M 203.6694,821.07598 c 13.28552,-3.94437 49.0645,-14.18038 184.77941,-52.8636 41.10315,-11.71576 102.08037,-29.18178 135.50491,-38.81339 33.42454,-9.6316 74.81513,-21.45448 91.97908,-26.27306 45.89972,-12.88581 192.09904,-54.56126 204.48923,-58.29151 5.87188,-1.76783 37.28438,-10.66788 69.80556,-19.77788 32.52118,-9.11001 62.87018,-17.64641 67.44212,-18.96978 8.31273,-2.40611 8.31273,-2.40611 6.27868,-20.03647 -1.11878,-9.6967 -6.18001,-53.84713 -11.24726,-98.11206 -9.43615,-82.42932 -15.72785,-136.70951 -27.22476,-234.87518 -3.5972,-30.71444 -8.40877,-72.10504 -10.69239,-91.97909 -6.34953,-55.25899 -4.1623,-50.09013 -19.62894,-46.38698 -7.22693,1.73032 -107.99506,26.73818 -223.92919,55.57301 -115.93412,28.83484 -211.40195,52.04834 -212.15073,51.58556 -0.74879,-0.46277 -1.60933,-0.20237 -1.91233,0.57867 -0.303,0.78104 -12.00723,4.17621 -26.0094,7.54482 -106.42643,25.60382 -339.080556,83.3526 -340.331969,84.47629 -0.637489,0.57243 -0.467171,3.99304 0.37849,7.60138 0.845649,3.60832 6.418409,34.64706 12.383909,68.97498 5.9655,34.3279 16.32905,93.26821 23.03013,130.97843 6.70107,37.71023 12.06498,69.12274 11.91979,69.80556 -0.14518,0.68283 0.18879,2.35018 0.74217,3.70523 0.55337,1.35505 4.34287,21.31123 8.42111,44.34705 4.07826,23.03584 11.55256,64.79599 16.60957,92.80033 5.05702,28.00436 10.65413,59.41685 12.43806,69.80557 1.78391,10.38871 3.63298,20.18348 4.10906,21.76616 0.97364,3.23681 1.50367,3.16331 22.81569,-3.16404 z M 422.11973,713.73645 c -19.96559,-4.02917 -35.1247,-15.76605 -32.72289,-25.3356 1.53303,-6.10807 5.64314,-8.32323 26.23357,-14.13871 9.89269,-2.79405 30.43378,-8.77271 45.64685,-13.28592 15.21308,-4.5132 28.74037,-7.79131 30.06063,-7.28467 1.32028,0.50662 1.99133,0.25911 1.49125,-0.55004 -0.50009,-0.80916 2.78756,-2.41867 7.30587,-3.57667 10.3976,-2.66482 10.29599,-3.32445 -1.22917,-7.97959 -18.32715,-7.40252 -33.01894,-16.73992 -48.04265,-30.53363 -5.74868,-5.27805 -5.74868,-5.27805 -22.17353,-0.53979 -55.42989,15.99051 -98.77537,-14.44775 -103.81889,-72.90415 -2.20551,-25.56287 19.95346,-64.83178 33.62369,-59.58602 1.21151,0.4649 1.7725,0.14911 1.24664,-0.70173 -0.52587,-0.85086 1.83788,-2.28069 5.25276,-3.17737 3.41489,-0.8967 11.95714,-3.11735 18.9828,-4.93478 7.02566,-1.81744 13.34249,-3.65583 14.0374,-4.0853 0.6949,-0.42948 0.18472,-7.52016 -1.13376,-15.75706 -3.08845,-19.29452 -5.02743,-17.78753 35.91558,-27.91383 33.90303,-8.38513 71.20805,-17.93972 154.39346,-39.5434 24.84257,-6.45173 64.49302,-16.73811 88.11212,-22.85862 50.61697,-13.11654 46.15714,-14.37308 50.83509,14.32257 18.84128,115.57697 10.34981,165.841 -36.10353,213.70964 -15.37032,15.8386 -15.4855,15.79053 16.23639,6.77613 48.39135,-13.75135 72.79766,-19.3172 76.49108,-17.44374 5.76947,2.92652 7.63585,6.98276 5.08925,11.06052 -1.18931,1.90439 -1.36869,2.97199 -0.39864,2.37247 5.87197,-3.62909 -1.2495,9.94386 -11.92937,22.7364 -7.96181,9.53679 -8.98083,9.99815 -43.79382,19.82735 -14.90554,4.20847 -35.60084,10.1537 -45.98954,13.2116 -10.38872,3.05792 -54.36621,15.62576 -97.72778,27.92856 -43.36158,12.3028 -90.29555,25.61936 -104.29772,29.59238 -44.24965,12.5555 -48.36295,13.26292 -61.59314,10.593 z m -9.53742,-132.69999 c 15.0997,-3.64124 14.49527,-2.01545 7.75762,-20.8666 -3.19682,-8.9443 -5.46654,-17.58492 -5.04382,-19.20138 0.42271,-1.61647 0.15903,-2.56231 -0.58597,-2.10188 -1.3434,0.83027 -4.36674,-11.11868 -8.21065,-32.45043 -2.29188,-12.71879 -1.57404,-12.43525 -19.26421,-7.60885 -31.47877,8.58833 -39.34955,23.81277 -28.13068,54.41313 9.2861,25.32857 26.55172,34.30915 53.47771,27.81601 z m 64.56062,-200.0368 c -17.69524,-11.00375 -23.58631,-41.39933 -12.21703,-63.03511 5.32774,-10.1387 8.09451,-30.16579 4.0213,-29.10784 -2.07328,0.53851 -8.21802,-4.09686 -7.33178,-5.53081 0.54414,-0.88042 0.0716,-1.39768 -1.05019,-1.14946 -1.12173,0.24823 -2.75516,-1.92754 -3.62983,-4.83505 -4.66756,-15.51555 16.4351,-19.51029 27.19273,-5.14762 13.25535,17.69743 14.06376,34.70061 2.69356,56.65301 -8.74707,16.8879 -8.61622,20.96721 0.98979,30.85876 12.11088,12.47089 3.32932,29.99866 -10.66855,21.29412 z m 61.23258,-16.46603 c -17.87792,-8.81462 -22.48357,-39.70011 -9.55348,-64.06549 8.3768,-15.7852 7.66828,-21.72123 -3.9012,-32.68444 -11.50709,-10.90409 -5.61483,-23.61315 8.74975,-18.87241 22.48472,7.42063 30.21997,37.42927 16.15226,62.66214 -8.69135,15.58942 -8.77611,19.74179 -0.63589,31.14822 12.60176,17.65815 6.34906,30.27291 -10.81144,21.81198 z m 62.38696,-15.36192 c -17.85515,-10.85837 -22.98884,-40.53504 -10.93975,-63.24026 7.6439,-14.40416 5.15161,-35.33213 -4.2077,-35.33213 -4.24246,0 -5.47991,-12.06046 -1.56288,-15.23228 22.7218,-18.39899 45.46653,31.30434 28.04522,61.28629 -8.39416,14.44629 -8.48851,20.01989 -0.53455,31.58057 9.59946,13.95233 1.98536,28.71325 -10.80034,20.93781 z"
       id="path1"
       sodipodi:nodetypes="ssssssssssssssssssssssssssssssssssssssssssssssssssssssssssssssssscssssssssssssssssssscssssssssssssssssssssssssssssssssssssssssssssssssssssssssssssssssssssssssssssssssssssssssssssssssssssssssssssssszssssssssssssssssssssssssssssssssssssssssssssssssssssssssssssssssssssssssssssssssssssssssssssssssssssssssssssssssssssssssssssssssssssssssssssssssssssssssssssssssssssssssssssssssssssssssssssssssssssssssssssssssssssssssssssssssssssssssssssssssssssssssssssssssss" />
  </g>
</svg>
